<svg version="1.0" xmlns="http://www.w3.org/2000/svg"
 width="131.000000pt" height="63.000000pt" viewBox="0 0 131.000000 63.000000"
 preserveAspectRatio="xMidYMid meet">

<g transform="translate(0.000000,63.000000) scale(0.100000,-0.100000)"
fill="#000000" stroke="none">
<path d="M900 571 c-14 -1 -28 -8 -32 -14 -20 -32 -201 -497 -196 -503 4 -3
19 -2 35 3 24 8 34 25 69 114 23 57 67 167 98 243 31 76 56 144 54 150 -2 6
-14 9 -28 7z"/>
<path d="M255 530 c-75 -31 -115 -128 -101 -243 22 -170 205 -237 286 -104 11
18 20 46 20 62 0 28 -2 30 -40 30 -37 1 -40 -1 -52 -39 -26 -81 -95 -70 -119
18 -15 54 -6 156 16 190 15 22 24 27 54 24 32 -3 37 -7 45 -40 9 -37 10 -38
57 -38 l48 0 -14 45 c-16 54 -29 71 -66 91 -30 15 -102 18 -134 4z"/>
<path d="M989 438 c0 -7 -2 -21 -4 -31 -4 -20 28 -54 65 -69 l25 -10 -22 -16
c-12 -9 -34 -25 -48 -35 -27 -19 -36 -77 -12 -77 10 0 151 81 166 96 2 2 5 14
6 27 3 21 -9 32 -78 73 -99 60 -97 59 -98 42z"/>
<path d="M544 412 c-21 -13 -25 -49 -9 -66 32 -31 85 -11 85 33 0 29 -50 51
-76 33z"/>
<path d="M540 200 c-11 -11 -20 -23 -20 -28 0 -18 33 -52 50 -52 22 0 50 26
50 46 0 16 -35 54 -50 54 -5 0 -19 -9 -30 -20z"/>
</g>
</svg>
