
<svg version="1.0" xmlns="http://www.w3.org/2000/svg"
 width="70.000000pt" height="41.000000pt" viewBox="0 0 70.000000 41.000000"
 preserveAspectRatio="xMidYMid meet">

<g transform="translate(0.000000,41.000000) scale(0.100000,-0.100000)"
fill="#000000" stroke="none">
<path d="M427 248 c-15 -40 -37 -94 -47 -120 -15 -37 -17 -48 -6 -48 7 0 33
50 59 115 53 128 52 125 34 125 -7 0 -25 -33 -40 -72z"/>
<path d="M152 277 c-30 -31 -30 -104 -1 -141 35 -44 92 -31 112 27 9 24 -21
22 -41 -4 -18 -21 -51 -18 -53 5 0 6 -2 19 -4 29 -5 28 15 77 32 77 9 0 21 -7
28 -16 6 -9 19 -15 29 -13 17 4 16 6 -4 32 -27 34 -68 36 -98 4z"/>
<path d="M510 249 c0 -7 8 -21 17 -32 17 -18 17 -19 0 -28 -9 -6 -17 -17 -17
-25 0 -12 8 -11 40 7 22 13 40 27 40 33 0 6 -18 21 -40 34 -25 14 -40 18 -40
11z"/>
<path d="M303 235 c-7 -20 2 -29 21 -22 9 4 13 13 10 22 -8 19 -23 19 -31 0z"/>
<path d="M300 130 c0 -23 25 -27 33 -6 7 16 -1 26 -20 26 -7 0 -13 -9 -13 -20z"/>
</g>
</svg>
